<svg xmlns="http://www.w3.org/2000/svg" viewBox="0 0 1980.96 1980.96"><title>man</title><path d="M7618.39,7908.24c-78.86-4.64-139.16-32.47-139.16-32.47-4.64-139.16-76.54-111.33-76.54-111.33l11.6-15.46q5.8-8.73,11.37-17.37,2.52-3.91,5-7.8a594.16,594.16,0,0,0,131.59-540.09,484.85,484.85,0,0,0-29.35-86.78A595.14,595.14,0,0,0,7220,6784.13q9.55-22.44,19.13-44.86c-5.59-13.73-27.22-29-49.76-41.85q.17-2.74.6-5.47c-8.26-2.86-16.66-5.34-25.15-7.54-19.3-9.57-34.7-15.88-34.7-15.88-331-103.32-551.85,56.92-589.27,86.91l-.27-.33c-15.07,6.06-30.61,5.11-46.45,3.73-9.77-.86-19.61-.74-29.42-1-1.24.13-2.49.2-3.74.21-1.46,0-2.92,0-4.37.06q-13.81,5-27.44,10.52c-1.7.69-3.38,1.4-5.07,2.11s-3.16,1.32-4.74,2c-1.73.75-3.47,1.52-5.2,2.29-1.37.6-2.74,1.22-4.11,1.83a19,19,0,0,0-4.19,3.15q-4,3.39-8.08,6.65a909.35,909.35,0,0,0-7.05,817.87q10.69,21.61,22.48,42.58c.06,0,1.17.9,3.06,2.42l1.63,1.31.1.08.49.4c8.19,16.15,17.88,31.2,27,46.73q6.59,11.15,13.67,21.93,3.72,5.67,7.59,11.26c1.26,1.82,3.49,4.22,5.35,6.59l2.93,4.79.09.12a10,10,0,0,0,3.12,4.18q6.3,8.4,12.79,16.67,21.06,26.79,44.07,51.92c166.09,181.52,404.93,295.36,670.36,295.36a905.85,905.85,0,0,0,339.07-65.41c65.82-18.26,107.19-38.67,110.89-51.38C7671.74,7938.39,7618.39,7908.24,7618.39,7908.24Z" transform="translate(-6206.56 -6209.34)" style="fill:#fff"/><path d="M7618.39,7908.24c-78.86-4.64-139.16-32.47-139.16-32.47-4.64-139.16-76.54-111.33-76.54-111.33l11.6-15.46q5.8-8.73,11.37-17.37,2.52-3.91,5-7.8a594.16,594.16,0,0,0,131.59-540.09,484.85,484.85,0,0,0-29.35-86.78A595.14,595.14,0,0,0,7220,6784.13q9.55-22.44,19.13-44.86c-5.59-13.73-27.22-29-49.76-41.85q.17-2.74.6-5.47c-8.26-2.86-16.66-5.34-25.15-7.54-19.3-9.57-34.7-15.88-34.7-15.88-331-103.32-551.85,56.92-589.27,86.91l-.27-.33c-15.07,6.06-30.61,5.11-46.45,3.73-9.77-.86-19.61-.74-29.42-1-1.24.13-2.49.2-3.74.21-1.46,0-2.92,0-4.37.06q-13.81,5-27.44,10.52c-1.7.69-3.38,1.4-5.07,2.11s-3.16,1.32-4.74,2c-1.73.75-3.47,1.52-5.2,2.29-1.37.6-2.74,1.22-4.11,1.83a19,19,0,0,0-4.19,3.15q-4,3.39-8.08,6.65a909.35,909.35,0,0,0-7.05,817.87q10.69,21.61,22.48,42.58c.06,0,1.17.9,3.06,2.42l1.63,1.31.1.08.49.4c8.19,16.15,17.88,31.2,27,46.73q6.59,11.15,13.67,21.93,3.72,5.67,7.59,11.26c1.26,1.82,3.49,4.22,5.35,6.59l2.93,4.79.09.12a10,10,0,0,0,3.12,4.18q6.3,8.4,12.79,16.67,21.06,26.79,44.07,51.92c166.09,181.52,404.93,295.36,670.36,295.36a905.85,905.85,0,0,0,339.07-65.41c65.82-18.26,107.19-38.67,110.89-51.38C7671.74,7938.39,7618.39,7908.24,7618.39,7908.24Z" transform="translate(-6206.56 -6209.34)" style="fill:none;stroke:#000;stroke-miterlimit:10;stroke-width:2px"/><circle cx="951.57" cy="247.21" r="39.37" style="fill:#fff;stroke:#000;stroke-miterlimit:10"/><circle cx="1380.8" cy="343.35" r="32.55" style="fill:#fff;stroke:#000;stroke-miterlimit:10"/><circle cx="1790.35" cy="919.45" r="28.77" style="fill:#fff;stroke:#000;stroke-miterlimit:10"/><circle cx="1694.21" cy="571.97" r="67.38" style="fill:#c7a315;stroke:#000;stroke-miterlimit:10"/><circle cx="1446.66" cy="780.15" r="33.31" style="fill:#fff;stroke:#000;stroke-miterlimit:10"/><circle cx="1746.44" cy="1229.83" r="52.99" style="fill:#fff;stroke:#000;stroke-miterlimit:10"/><circle cx="1463.31" cy="1440.28" r="16.65" style="fill:#fff;stroke:#000;stroke-miterlimit:10"/><circle cx="1438.33" cy="1307.8" r="24.98" style="fill:red;stroke:#000;stroke-miterlimit:10"/><path d="M7120.88,6640.84l-320.79,609s28.21-4.49,38.61,12l310.4-582.09S7175.83,6655.8,7120.88,6640.84Z" transform="translate(-6206.56 -6209.34)" style="fill:#12002d"/><circle cx="563.97" cy="1163.21" r="120.37" style="fill:none;stroke:#12002d;stroke-linecap:round;stroke-linejoin:round;stroke-width:20px;stroke-dasharray:14,32,0,47,5,5"/><circle cx="563.97" cy="1163.21" r="120.37" style="fill:none;stroke:#12002d;stroke-linecap:round;stroke-linejoin:round;stroke-width:20px;stroke-dasharray:101,257,184,10,75,5"/><circle cx="563.97" cy="1163.21" r="74.95" style="fill:#12002d"/><path d="M7170.23,6801.05l-255.72,460.79s127.95,134.53-55.86,264.41l508.92,177.82S7854.26,7118,7170.23,6801.05Z" transform="translate(-6206.56 -6209.34)" style="fill:#fe6700"/><path d="M7175.08,6825.22a345.94,345.94,0,0,1,11.22,73.52q20.69,92.37-8.27,184.74c-7.42,19.41-14.47,40-22.43,60.39q2.53,4.77,5.11,9.5c13.17,24.32,26.82,48.37,40,72.71,7.13,13.19,14.33,26.39,20.58,40,9.88,21.56,18.79,44.06,27.89,65.61,9,21.26,18.44,42.79,27.08,64.39,2.76,6.9,5.36,13.87,7.86,20.88,10.45,29.33,18.8,59.38,29.72,88.54,5.47,14.59,11.38,29,16.38,43.77,2.59,7.66,4.95,15.41,6.82,23.28q1.24,5.19,2.19,10.46c6.78,38.24,11,78.09,15.92,116.88q2.8,1,5.46,2.25c8.47,2.13,16.91,4.38,25.33,6.68,98.52-96.08,159.71-230.27,159.71-378.75C7545.61,7093.14,7389.82,6892.57,7175.08,6825.22Z" transform="translate(-6206.56 -6209.34)" style="fill:#fe6700"/><path d="M7480.67,7234.62c4.67-4.55,7.07-10.93,8.84-17.21a68,68,0,0,0,2.65-18.53c0-5.44,2.53-10.22,2.84-15.63a151.76,151.76,0,0,0-.61-23.35,308.38,308.38,0,0,0-17.51-61.6c-13.91-30.87-31.74-59.77-52-86.88q-15.48-19.44-32.53-37.53c-17.54-16.44-35.5-32.37-55-46.33-17.61-12.59-36.37-23.3-55.51-33.35-17.09-8.43-34.26-16.73-51.21-25.37-25.06-9-50-18.49-74.12-30.06a38.94,38.94,0,0,1-5.41-3.18l-236.55,426.24s127.95,134.53-55.86,264.41l418.26,146.15q4.73-1.48,9.39-3.15a249.1,249.1,0,0,0,32.91-14.51,343,343,0,0,0,33.14-19.52c6.64-4.44,7-4.54,12.25-9a109.45,109.45,0,0,0,10.63-10.36c.65-.72,1.26-1.47,1.88-2.21l.76-1c1.26-2,2.62-4,3.8-6.09,1-1.79,1.95-3.63,2.83-5.49-.51.9,1.95-5.25,2.19-6a167.9,167.9,0,0,0,7.77-37.82c2.1-24.45.94-49,1.21-73.51a178.88,178.88,0,0,1,4.45-65.87c4.07-16.19,9.95-31.84,15.95-47.42,6.42-22.43,13.45-44.61,25.34-64.76,10.25-36.16,31.69-67.45,47.45-101.43q1.5-4,2.79-8.15" transform="translate(-6206.56 -6209.34)" style="fill:#eb013e"/><path d="M7387.6,7080.69a153.24,153.24,0,0,1,33.91,22.9c5.32,4.75,12.1-1.14,9.43-7.27-6.88-15.74-24.76-21.07-39.57-26.44a650.3,650.3,0,0,1-60.11-25.33l-3,11.18,17.17.69c7.73.31,7.71-11.69,0-12l-17.17-.69c-5.76-.24-8.43,8.58-3,11.18q27.42,13.18,55.92,23.93c13.58,5.11,33,8.79,39.45,23.54l9.43-7.28a165.36,165.36,0,0,0-36.34-24.77c-6.89-3.44-13,6.91-6.06,10.36Z" transform="translate(-6206.56 -6209.34)" style="fill:#eb013e"/><path d="M7468.14,7122.76c4.54,3.44,6.21,9.64,7.63,14.87,1.82,6.69,3.39,13.47,4.87,20.24,1.62,7.42,3.63,15,3.17,22.7-.39,6.58-2.45,13.21-4.37,19.48a172.47,172.47,0,0,1-38.55,66.55c-5.25,5.66,3.21,14.16,8.48,8.49a185.71,185.71,0,0,0,43-76.64c2.09-7.6,3.9-15.48,3.35-23.42-.57-8.13-2.6-16.21-4.39-24.13-3.1-13.67-5.31-29.52-17.18-38.51-6.15-4.66-12.14,5.76-6,10.37Z" transform="translate(-6206.56 -6209.34)" style="fill:#eb013e"/><path d="M7470.2,7121.57c7.94,16.73,16.4,34.29,17.55,53.08,1.2,19.44-5.62,39.07-13.69,56.48-8,17.2-18.47,33-29.17,48.63q-17.28,25.18-34.64,50.3c-4.39,6.38,6,12.39,10.36,6.06,18.57-26.95,38.6-53.42,54.91-81.83,15.23-26.54,28.09-58.12,23.12-89.22-2.79-17.46-10.56-33.72-18.08-49.56-3.31-7-13.66-.89-10.36,6.06Z" transform="translate(-6206.56 -6209.34)" style="fill:#eb013e"/><path d="M7428.58,7302.78,7408,7356.15c-6.75,17.52-13.3,35-17.54,53.33a287.87,287.87,0,0,0-7.22,54c-.73,19.11,1.63,38,2,57.05.42,21.45-4.8,42.25-9.09,63.13-1.55,7.54,10,10.76,11.57,3.19,3.7-18,8.31-36.14,9.34-54.55,1.08-19.17-2-38.31-2-57.48-.1-37.59,8.32-73.31,21.76-108.23q11.64-30.3,23.35-60.58c2.78-7.21-8.82-10.33-11.57-3.19Z" transform="translate(-6206.56 -6209.34)" style="fill:#eb013e"/><path d="M7442.21,7267.55q-9.68,22.8-17.57,46.27l11.57,3.19c1.51-5,4.73-9.73,6.56-14.73,2.09-5.73,4.15-11.46,6.23-17.19,2.63-7.27-9-10.41-11.58-3.19-2.07,5.73-4.13,11.46-6.22,17.19-1.85,5.06-5,9.58-6.56,14.73-2.24,7.44,9.14,10.47,11.57,3.19,4.9-14.67,10.32-29.16,16.36-43.4,1.28-3,.88-6.4-2.15-8.21-2.5-1.5-6.95-.83-8.21,2.15Z" transform="translate(-6206.56 -6209.34)" style="fill:#eb013e"/><path d="M7489.52,7192.54c4.13,7.11-.32,15.23-3.23,21.93-3.15,7.24-5.33,14.94-9.19,21.85-8.5,15.17-19.51,29.28-29.28,43.66-4.35,6.4,6,12.41,10.36,6.06l17.63-25.94c5.28-7.77,11-15.37,14.73-24,3.54-8.18,7-16.6,10.14-24.94,3-8.12,3.68-16.93-.79-24.64-3.88-6.68-14.25-.64-10.37,6.06Z" transform="translate(-6206.56 -6209.34)" style="fill:#eb013e"/><path d="M7487.8,7171.64c2.71,7.26,5.59,14.73,5,22.61s-3.47,16.09-5.95,23.57a154.8,154.8,0,0,1-20.81,41.36l10.36,6.06,1.07-2.3c3.22-7-7.12-13.07-10.37-6.06l-1.06,2.3a6,6,0,0,0,10.36,6.06,166.36,166.36,0,0,0,22.56-45.9c2.6-8.07,5.29-16.58,5.84-25.09.58-8.95-2.39-17.54-5.47-25.8-2.67-7.17-14.27-4.06-11.57,3.19Z" transform="translate(-6206.56 -6209.34)" style="fill:#eb013e"/><path d="M7454.37,7192.26c-.54-18.56-6-35.63-13.93-52.25-2.44-5.1-5.15-10.54-8.16-16q-2.14-3.21-4.39-6.35a301.39,301.39,0,0,0-34.75-35.44c-9.56-2.75-19.12-5.51-28.64-8.39a167.92,167.92,0,0,1-22-7c-4.16-1.38-8.31-2.8-12.44-4.29-4-1.43-7.89-2.94-11.78-4.49-6.19-1.79-12.32-3.77-18.36-6-18.25-6.77-37.34-14.35-53.58-25.37-13.43-9.11-25.5-19.66-37.22-30.58-9.6-6.06-19.34-12-27.93-19.41a159,159,0,0,1-16.37-16.67c-16.17-13.68-29.2-30.77-41.42-48-3.24-1.93-6.46-3.93-9.61-6l-1.34-.9-198,356.71s127.95,134.53-55.86,264.41l365.43,127.68c22.56-11.54,45.16-23.23,65.75-38a182.75,182.75,0,0,0,21.63-21.29,189.74,189.74,0,0,0,16.13-28.18c8.74-22.44,15.26-45.69,20.62-69.15,10.91-47.79,17.43-97.35,36.14-143,10-24.34,21.95-46.93,35.46-69.45,9.83-16.38,19.72-32.75,27.82-50.06q2.79-7.44,4.9-15.06A155.59,155.59,0,0,0,7454.37,7192.26Z" transform="translate(-6206.56 -6209.34)" style="fill:#b00040"/><path d="M7288.08,7133c-.15-.32-.32-.62-.48-.93a199.89,199.89,0,0,0-39.86-24.35c-31.38-8.55-64-11.75-95.19-21.14-18-5.42-36.49-12.51-51.89-23.55a131.42,131.42,0,0,1-27.53-18.69l-3.25-1.47c-9.26-4.11-16.37-12.44-21.42-21.63L6915,7261.84s127.95,134.53-55.86,264.41l220,76.87,1.71-.42h0a59.06,59.06,0,0,1,31.6-9.45c.9,0,1.79,0,2.69.05,33-10,65.05-23.11,93.11-43.64a280.87,280.87,0,0,0,25.64-27.23,221.45,221.45,0,0,0,20.24-33.75,140.72,140.72,0,0,0,5.7-19.93c1.31-18.39-.43-37.06-2.74-55.35-3.75-26.54-8.11-53.31-7.17-80.16,1.82-52.59,20.24-102.81,40.59-150.7q3.45-8.11,7.21-16.2A253.22,253.22,0,0,0,7288.08,7133Z" transform="translate(-6206.56 -6209.34)" style="fill:#012346"/><path d="M7317.3,7074.4q19.36,5.64,38.62,11.66c11.87,3.71,23.75,7.36,34.26,14.2,6.49,4.23,12.51-6.16,6-10.36-10.79-7-23.08-11-35.29-14.84q-20.16-6.33-40.45-12.23c-7.43-2.17-10.6,9.41-3.19,11.57Z" transform="translate(-6206.56 -6209.34)" style="fill:#b00040"/><path d="M7377.35,7092.24a23.66,23.66,0,0,1,9.45,2.79l4.62-11-21.38-6.92c-7.41-2.39-10.4,9-3.19,11.58a165.47,165.47,0,0,1,26.64,12.27l6.06-10.37a7.57,7.57,0,0,1-3.38-2.44l-4.24,10.25a8.69,8.69,0,0,1,6.7,3.37l7.27-9.42a49.07,49.07,0,0,1-9.66-6.11l-7.27,9.43c18.35,8.67,25.86,28.22,32.43,46.11,1.79,4.87,10.64,6.47,11.57,0,1.76-12.2-3.82-22.13-10.74-31.75l-8.21,8.21c23.46,14.61,24.37,45.51,24.5,70.11,0,7.74,11.72,7.7,12,0,.78-21.68-5.7-44-14.69-63.55-8.19-17.84-25.59-27.26-42.48-35.41l-3,11.18c21.06,2,33.23,22.24,40.06,40l11-4.62-9.05-18.94-6.78,8.81c4.37,1.42,6.95,4.81,7.89,9.21l11-4.62a60,60,0,0,0-19.67-23l-6.06,10.37c28.61,18,27.43,55.7,16.74,83.74l11.78,1.59,4.41-48.46-11.18,3c12.6,29.72,4.78,66.15-18,88.69l9.43,7.27c7.69-16.92,16.32-33.78,20.26-52.07a135,135,0,0,0,.28-54.93l-11,4.63c8.92,13.47,6.25,30.07.67,44.32l11.78,1.59-.9-25.43-.42-11.73c-.12-3.35-1.33-9-.25-12.11l-2.75,3.59.72-.52-4.62.61c-1.58-.42.23,1.75.62,2.75a31.64,31.64,0,0,1,1.13,3.94c.72,3,1.15,6.14,1.63,9.23,1.07,7,2.29,13.94,3.2,20.93.87,6.59.28,11.44-3.65,16.87-3.21,4.45-6.48,8.45-7.83,13.91-1.86,7.56,9.06,10.43,11.57,3.19a64.1,64.1,0,0,1,6.41-13.16l-11.18-3c-1.48,18-16.07,31.71-29.74,41.83l8.21,2.15a7.47,7.47,0,0,1-.81-5c.71-7.69-11.3-7.64-12,0a18.66,18.66,0,0,0,2.44,11c1.42,2.64,5.66,4,8.21,2.16,17.49-12.94,33.82-29.4,35.69-52.19.51-6.25-8.23-7.72-11.19-3a78.22,78.22,0,0,0-7.61,16l11.57,3.19c1.36-5.5,5.86-9.35,8.68-14.09a28.49,28.49,0,0,0,3.53-17.19c-.58-7-2-14.06-3-21-1-6.3-1.52-12.89-3.64-18.94-1.66-4.74-4.61-11.45-10.6-11.35-6.8.12-7.15,7.38-7,12.39l1.6,45c.26,7.08,9.38,7.75,11.79,1.6,6.7-17.1,8.71-37.57-1.88-53.57a6,6,0,0,0-11,4.62,120,120,0,0,1-.67,50.34c-3.84,16.63-11.63,32-18.66,47.42-2.69,5.91,4.28,12.36,9.43,7.27,27-26.69,34.63-68.49,19.9-103.24-2.57-6.07-10.71-2.14-11.18,3l-4.41,48.46c-.65,7.22,9.56,7.45,11.79,1.6,12.75-33.44,10.93-76.36-22.25-97.3-6.63-4.18-12.24,6-6.06,10.37a47.75,47.75,0,0,1,15.37,18.66c3.07,6.4,12.32,1.71,11-4.63a23.71,23.71,0,0,0-16.28-17.59c-5.37-1.74-8.88,4.41-6.78,8.82l9.06,18.93c2.89,6.06,13.41,1.76,11-4.62-9-23.43-24.52-46.32-51.63-48.86-5.86-.55-8.27,8.65-3,11.18,15.09,7.28,30.89,15.09,38.18,31.1,8.06,17.69,13.75,38,13.05,57.5h12c-.16-29.34-2.92-63.32-30.44-80.47-4.87-3-11.78,3.24-8.21,8.21,4.51,6.27,10.72,14.23,9.53,22.5H7433c-7.61-20.7-16.72-43.25-37.94-53.28-5.69-2.69-12.91,4.76-7.28,9.42a62.63,62.63,0,0,0,12.09,8,6,6,0,0,0,7.27-9.43,20.55,20.55,0,0,0-15.18-6.88c-5.57-.19-7.42,6.51-4.25,10.24a15.49,15.49,0,0,0,5.81,4.32c6.89,2.94,13-6.42,6.06-10.37a184.84,184.84,0,0,0-29.51-13.48l-3.19,11.58,21.38,6.92c6.44,2.08,10.64-7.78,4.62-11a38.28,38.28,0,0,0-15.5-4.43c-7.7-.58-7.66,11.42,0,12Z" transform="translate(-6206.56 -6209.34)" style="fill:#b00040"/><path d="M7433,7136.59a39.92,39.92,0,0,1,13.92,19.61c2.32,7.34,13.91,4.2,11.57-3.19a50.69,50.69,0,0,0-17-24.91c-2.57-2-6-2.46-8.48,0-2.1,2.06-2.55,6.5,0,8.49Z" transform="translate(-6206.56 -6209.34)" style="fill:#b00040"/><path d="M7404.65,7103.11c11.33,4.75,19.37,16.16,25.76,26.15a138.49,138.49,0,0,1,16.12,35.51c2.18,7.39,13.77,4.24,11.57-3.19a149.53,149.53,0,0,0-19.23-41.27c-8.08-12-17.43-23.08-31-28.77-3-1.26-6.56,1.36-7.38,4.19-1,3.45,1.22,6.14,4.19,7.38Z" transform="translate(-6206.56 -6209.34)" style="fill:#b00040"/><path d="M7427.6,7122.41a89.12,89.12,0,0,1,25.65,49l10-5.84-2.3-2.26c-5.51-5.42-14,3.06-8.49,8.48l2.3,2.26c4.55,4.48,11-.18,10-5.83a99.85,99.85,0,0,0-28.73-54.26c-5.54-5.4-14,3.08-8.49,8.48Z" transform="translate(-6206.56 -6209.34)" style="fill:#b00040"/><path d="M7423.66,7114.41c9.77,14.06,19.65,28.24,26.71,43.9,3.44,7.63,6.59,16,7.47,24.34,1,9.11-2.12,17.64-5.84,25.82a141.34,141.34,0,0,1-28.64,41c-12.06,12.15-24.9,25.12-39.9,33.59-6.73,3.79-.69,14.16,6.05,10.36,16.37-9.24,30.59-23.41,43.64-36.79a149.78,149.78,0,0,0,30.61-45.29c3.67-8.56,6.74-17.43,6.23-26.88s-3.59-18.8-7.24-27.55c-7.27-17.47-18-33.09-28.72-48.57-4.38-6.29-14.79-.3-10.37,6.06Z" transform="translate(-6206.56 -6209.34)" style="fill:#b00040"/><path d="M7431.39,7239.82c-16.37,35.57-50.37,56.63-82.59,76.22-6.59,4-.56,14.39,6.06,10.37,33.85-20.6,69.7-43.17,86.89-80.53,3.21-7-7.13-13.07-10.36-6.06Z" transform="translate(-6206.56 -6209.34)" style="fill:#b00040"/><path d="M7379.42,7097a63.73,63.73,0,0,0,17.28,8.34c6.37,2,10.85-8,4.62-11a3.46,3.46,0,0,1-1.87-1.21l-3.58,8.82c2.21-.39,5.53,2.8,7.18,3.88a88.29,88.29,0,0,0,7.7,4.49,98.42,98.42,0,0,0,16.33,6.56c6.41,2,10.75-7.85,4.62-11a219,219,0,0,0-23-10.12q-6-2.2-12-4c-2.51-.76-6.87-1.07-8.16-3.6l-5.18,9c13.91.57,25.48,10.53,39,13,6.48,1.18,10.7-7.24,4.62-11a141,141,0,0,0-73.64-20.67c-6.69,0-8.24,10.1-1.59,11.79,17.52,4.46,35.33,8.34,52.6,13.69,7.26,2.25,16.91,4.87,22.18,10.74,2.67,3,4.3,6.93,6.15,10.44l6.36,12.07c3.1,5.89,13.55,1.76,11-4.62l-4.78-11.83-8.81,6.78c14,10.17,21.06,27.37,19.55,44.4-.59,6.69,10.48,8.22,11.79,1.59,2.62-13.28-.52-26.69-7.87-38a78.42,78.42,0,0,0-12.93-15.05c-4.75-4.35-10.68-7.72-14.72-12.75l-4.25,10.24c5.61,0,9.47,5,12.42,9.21a196.55,196.55,0,0,1,10.9,17.22c6.42,11.55,11.31,26.09,5.81,39l11.18,3a2.47,2.47,0,0,1,.59-2.4l-10-2.64a7.52,7.52,0,0,1-1.61,7.39l10,5.84a171.93,171.93,0,0,0,4.07-20.47h-11.57c1.45,6.18-1.87,13.29-7.94,15.65-7.12,2.77-4,14.38,3.19,11.57,12.31-4.79,19.37-17.4,16.32-30.41-1.27-5.43-10.75-6-11.57,0a172,172,0,0,1-4.08,20.47c-1.46,5.55,5.92,10.46,10,5.84a20,20,0,0,0,4.7-19.07c-1.09-4.12-7-6.15-10-2.65a15.26,15.26,0,0,0-4.1,10.88c.14,5.43,8.69,8.85,11.18,3,7.37-17.27,3-35.23-5.81-51.09a151.63,151.63,0,0,0-14.06-21.47c-5-6.19-11.38-10.94-19.62-10.91-5.61,0-7.36,6.36-4.24,10.24,3.39,4.21,8.13,7,12.21,10.53a75.91,75.91,0,0,1,11.67,12.1c6.68,9,10.77,20.26,8.56,31.49l11.78,1.6c1.9-21.47-8.23-42.18-25.5-54.77-4-2.95-10.74,2-8.81,6.78l4.78,11.83,11-4.63c-4.2-8-7.79-17.54-13.82-24.33-5.82-6.56-14.77-9.89-22.84-12.72-18.74-6.57-38.58-10.51-57.8-15.4l-1.6,11.78a128.76,128.76,0,0,1,67.58,19l4.63-11c-14.79-2.68-26.88-12.79-42.23-13.42-4.8-.2-7.14,5.17-5.18,9,3.78,7.43,13.4,8.39,20.53,10.74a193.28,193.28,0,0,1,27,11.31l4.62-11a81.92,81.92,0,0,1-19.66-8.88c-6-3.72-10.59-7.33-17.93-6.05-3.63.63-5.71,5.84-3.59,8.81a15.57,15.57,0,0,0,6.18,5.51l4.62-11a53.29,53.29,0,0,1-14.42-7.13c-6.37-4.4-12.37,6-6.05,10.36Z" transform="translate(-6206.56 -6209.34)" style="fill:#b00040"/><path d="M7360.11,7086.29a96.6,96.6,0,0,1,9.84,4.46,6.15,6.15,0,0,0,8.21-2.16c1.57-2.68.74-6.71-2.15-8.2a124.3,124.3,0,0,0-12.71-5.67c-3-1.17-6.59,1.28-7.38,4.19-.93,3.38,1.15,6.21,4.19,7.38Z" transform="translate(-6206.56 -6209.34)" style="fill:#b00040"/><path d="M7202.57,7013.12l4.72,4.55c2.26,2.19,6.27,2.42,8.49,0a6.09,6.09,0,0,0,0-8.48l-4.72-4.56c-2.26-2.18-6.27-2.41-8.49,0a6.11,6.11,0,0,0,0,8.49Z" transform="translate(-6206.56 -6209.34)" style="fill:#fff"/><path d="M7123.66,7260.11a15.11,15.11,0,0,0,7.93,5.51s.87.37.86.38a9.53,9.53,0,0,1-.55-1.58,5,5,0,0,1,.34-1.15c.19-1.11,1.49,1.12-.49-.39-.65-.49-1.52-1.7-2.12-2-.77-.4.8-.5-.54.22.16-.09-1.22,1.74-1.24,1s.87.86,1,1.15a7.52,7.52,0,0,1,.6,1.57l.23.89c.29,1.65,1.47,1.16,3.56-1.45l2.65,1.54c-.91-.73-.84-1.57-1.33-2.63-.79-1.72.44-.86-1.65-.61a1,1,0,0,1-1.18-.08c-.45-.29-.47-.26-.07.1a8.14,8.14,0,0,0,.79,1.15c.22.38.42,1.21.74,1.49.06.73.21.81.45.25a4.05,4.05,0,0,1,2.22-1.78l3,.82c.79.95.91.84.35-.33-.19-.65-.36-1.31-.5-2-.16-.83-.12-1.64-.28-2.46q.36-3.45-4.39,1.48c-.72-1.15-.94-1.32-.66-.52-.18.5.24,1.84.23,2.4,0-.1,0,1.78-.18,1.74a2.47,2.47,0,0,1,2.74-1.52c.75.16,1,.29.68.4-.12.14.07-.94,0-.87.63-1,.85-2.87,1.28-4,1.13-3-1.26-6.58-4.19-7.38-3.36-.93-6.24,1.14-7.38,4.19-1.64,4.39-2.71,9.46-.28,13.8,2.18,3.87,6.77,6.63,11.27,5.64,9.21-2,10.6-16.48,4.64-22.54-3.38-3.44-9.34-4.22-13-.66s-3,8.62-2.22,13c.92,4.88,3.35,10.73,9.14,10.84,5.18.1,9.19-4.34,9.31-9.37.19-8.42-8.9-19.58-17.83-14.27-4.43,2.64-5.92,7.92-5.05,12.75.8,4.41,3.14,9.76,7.8,11.14,5.14,1.51,10.06-2.17,11.13-7.19.94-4.42-.9-9.83-3.54-13.37a12.37,12.37,0,0,0-11.75-5.15,10.18,10.18,0,0,0-8.85,9.33c-.7,10.19,12.5,19.6,21.48,13.54,4.48-3,6.33-9.11,3.48-13.85a11,11,0,0,0-4.86-4.15c-1-.48-2.1-.81-3.12-1.26-.79-.35-1.32-1.09-.42.14-1.91-2.61-5.21-3.91-8.21-2.16-2.57,1.51-4.08,5.59-2.15,8.21Z" transform="translate(-6206.56 -6209.34)" style="fill:#fff"/><path d="M7378.57,7494.42a7,7,0,0,0,4.06,3.36c2.88,1,6.82-1.15,7.38-4.19a8.41,8.41,0,0,0-.83-6c-2.09-3.68-6.47-3.54-9.42-1.22a5.55,5.55,0,0,0-1.8,3.38c-1.4,7.55,10.17,10.79,11.57,3.19l-1.29,1.92-9.42-1.22-.38-3.28,7.38-4.19-.16-.06,3.58,2.76-.31-.55c-3.83-6.71-14.2-.67-10.36,6.06Z" transform="translate(-6206.56 -6209.34)" style="fill:#fff"/><path d="M7362.17,7230.56a19.58,19.58,0,0,1,3.94,7.94,16.88,16.88,0,0,1,.36,4.37c0,.24-.78,4.29-.76,4.31l5.15.1a8.15,8.15,0,0,1-.55-2.06,10,10,0,0,1,.29-3.73,10.47,10.47,0,0,1,4.06-6.05c3-2.09,4.31-6.65,1.22-9.42a14.15,14.15,0,0,0-18.72-.33c-5.51,4.62-6.34,12.45-3.46,18.77,3.22,7.07,11.17,12.31,19,9.9a15.73,15.73,0,0,0,10.64-15.26c-.32-7.8-7.22-12.32-13.8-14.78-8.3-3.1-14.43,1-13.66,10,.59,7,.24,15.52,7.19,19.55,6.26,3.64,13.65,1.47,16.23-5.3l-11.57-3.19a5.6,5.6,0,0,1-1.91,3.67c-.58.5-.71.1-.59-.27l-11.79-1.59c-.93,8,5.44,13.85,12.9,14.7,4.34.5,7.75-5.54,5.18-9-1.13-1.54-1.58-2.51-1.07-4.4,2-7.46-9.54-10.64-11.57-3.19a15.58,15.58,0,0,0,2.28,13.64l5.18-9c-1.3-.14-1-2-.9-2.7.82-7-9.76-7.67-11.78-1.6-2.34,7,2.82,14.46,10,15.53,7.81,1.16,14.17-5.36,15.64-12.55,1.56-7.65-8.84-10.36-11.57-3.19.39-1.18,1-1.75,1.94-1.7l-.54-.17c.08-.76-.74-2.69-.83-3.7-.14-1.57-.19-3.14-.33-4.71-.07-.63-.15-1.25-.23-1.87q.19-2.82-1.19.9l-4.63.6c2.55.4,7.56,1.48,9,4a3,3,0,0,1-2.18,4.29c-2.7.37-5.23-4.31-4.77-6.5.26-1.28,2-3.2,3.37-2l1.22-9.42a23,23,0,0,0-10,15.87c-.88,6.28.72,15.11,7.82,17.12,8.16,2.31,11.22-6.72,11.9-12.95a28.88,28.88,0,0,0-5.75-20.62c-2-2.58-5.14-3.9-8.21-2.15-2.55,1.45-4.12,5.65-2.15,8.21Z" transform="translate(-6206.56 -6209.34)" style="fill:red"/><path d="M7241.26,6940.32l8.07,4.23c1.25.65,2.52,1.29,3.77,2,2.1,1.15.15.55.81-1l1.54-2.65c.83-.21.92-.23.29-.06a8.86,8.86,0,0,1-1.26.29,7.63,7.63,0,0,1-1.07,0,5.45,5.45,0,0,1-3.25-.88c-.31-.25-.85-1.25-.71-.78a3.2,3.2,0,0,1,.21-1.48c.13.16-.62.4-.81.27a8.23,8.23,0,0,1,1.64,1.32,16.22,16.22,0,0,1,2,3.38c.06.12.6,1.32.54,1.23.6.89-.52.55.44-1l2.15-2.15.48-.21c-3.2.56-5,4.46-4.19,7.38.92,3.36,4.17,4.75,7.38,4.19,5.65-1,6.72-7.62,5-12.16s-4.26-8.91-8.27-11.68c-8.84-6.12-19.58,1.59-18.52,11.71,1.14,10.87,14.86,16.05,24,11.1,5.78-3.14,5.47-10.55,1.06-14.69-4.14-3.87-10.3-6.06-15.27-8.66-6.84-3.58-12.91,6.77-6.06,10.36Z" transform="translate(-6206.56 -6209.34)" style="fill:#fff"/><path d="M7456.89,7406.32a40.82,40.82,0,0,1,8.7,2.07c1.63.61,6.4,2.23,7.36,3.94,1.95,3.49-9.74,8.39-11.93,6-3.24-3.47-.19-11,4.32-11.53,2.82-.31,6.32,4.1,2.71,5-2.29.58-.64-4.14,2.52-1.83,5.18,3.76-2,9.52-5.87,10-2.21.25-4.64.34-5.33-1.69-1.35-3.93,3.77-5.05,3.58-8a6.09,6.09,0,0,0-.64-2.06c-.21.31-.5.26-.85-.17l-.52-2.7c-1.08-.9-2.53,1.12-2.72,1.06l-2.64-10c-2.92,3.24-8.27,6.54-10.07,10.47s-1.17,9.05.44,12.85c3.55,8.38,12.38,11.95,21,10.15,7.55-1.57,4.36-13.14-3.19-11.57-3.25.68-7.1-1.29-7.26-5-.09-2.13,5.45-6.08,7.58-8.44a6.07,6.07,0,0,0-2.65-10,11.41,11.41,0,0,0-14.24,11.24c.19,7.65,8.19,12.34,15.19,11.2s13.05-8.44,9.28-15.37c-3.21-5.88-11.72-7.3-16.78-3-5.88,5-5.48,15.14-.12,20.43s14,1.23,15.29-5.66c1.59-8.33-7.38-13.08-14.43-10.42-7.73,2.91-9.52,12.27-7.53,19.49,2.24,8.12,11.54,10,18.89,8.95,8-1.18,14.95-6.8,16.7-14.89a16,16,0,0,0-9.95-18.54,13.75,13.75,0,0,0-17.38,6.79c-3.11,6.36-1.08,14.24,5.44,17.46a14.2,14.2,0,0,0,18-5.42c3.71-6.42,1.26-14.92-4.47-19.23-5.92-4.46-14.25-3.74-20,.66-7,5.33-8.94,15.28-5.8,23.28,4.17,10.64,14.11,10.43,23.31,6.58,8.12-3.4,16.42-12.08,11.15-21.44-4.27-7.58-15.87-11.11-23.85-12.23-3.24-.45-6.41.79-7.38,4.2-.81,2.8,1,6.93,4.19,7.38Z" transform="translate(-6206.56 -6209.34)" style="fill:#fff"/><rect x="6897.5" y="7666.58" width="123.7" height="38.85" transform="translate(-3785.43 -7845.98) rotate(16.2)" style="fill:none;stroke:#fff;stroke-miterlimit:10"/><polygon points="699.48 1440.75 699.48 1505.56 804.48 1534.94 810.66 1476.9 699.48 1440.75" style="fill:#12002d"/><polygon points="849.91 1485.94 846.55 1550.94 1186.04 1662.8 1188.83 1608.86 849.91 1485.94" style="fill:#12002d"/><path d="M7242.87,7762.88q3.69,27.42,7.37,54.84c.1,2.53.16,5.06.21,7.58l142.15,46.83,2.79-53.94Z" transform="translate(-6206.56 -6209.34)" style="fill:#eb013e"/><path d="M7314.78,7789q1.36,10.13,2.72,20.26a375.5,375.5,0,0,1-.46,38l75.56,24.89,2.79-53.94Z" transform="translate(-6206.56 -6209.34)" style="fill:#fe6700"/><path d="M8186.52,7199.82c0,546.47-443,989.48-989.48,989.48s-989.48-443-989.48-989.48a998.72,998.72,0,0,1,7.51-122.51,987.44,987.44,0,0,1,21.93-118c107.45-430.23,496.53-748.94,960-748.94C7743.52,6210.34,8186.52,6653.34,8186.52,7199.82Z" transform="translate(-6206.56 -6209.34)" style="fill:none;stroke:#000;stroke-miterlimit:10;stroke-width:2px"/></svg>