<svg xmlns="http://www.w3.org/2000/svg" viewBox="0 0 309.17 36.65"><title>title</title><path fill="currentColor" d="M117.92,132.53v13l-8.64-8.64v-4.32Zm-8.64,8.21,8.64,8.64v18h-8.64Z" transform="translate(-109.28 -131.52)"/><path fill="currentColor" d="M157.23,131.52v35.86H149.1l-.36-.36-9.51-9.5L133.69,152l-8.64-8.64V132.46h1.37l.21.22,22,22V140.16l.22-.21Zm-32.11,15.85,8.64,8.64v11.37h-8.64Z" transform="translate(-109.28 -131.52)"/><path fill="currentColor" d="M200,154.13a11.9,11.9,0,0,1,0,6.34,11.1,11.1,0,0,1-10.37,7.7h-24v-8.64h24a2.23,2.23,0,1,0,0-4.46h-13.1a11.55,11.55,0,0,1-3.17-.43,10.84,10.84,0,0,1-7.34-7.35,11.6,11.6,0,0,1,0-6.33,10.84,10.84,0,0,1,7.34-7.35c.29-.07.58-.14.79-.21l.36-.08,8.43,8.43h-6.48a2.23,2.23,0,1,0,0,4.46H192l.07.08h.22a5.05,5.05,0,0,1,.57.21H193l.43.22.43.21H194l.21.22.43.22.22.14a.88.88,0,0,1,.29.22l.21.21h.08l.64.43.22.22.22.22.07.07.21.21.44.44.07.14V150l.21.21.22.22v.22l.07.07.43.86v.07c.08.22.15.44.22.65l.07.15.15.43v.21l.14.36Zm-.72-21.6v8.64H185.67L177,132.53Z" transform="translate(-109.28 -131.52)"/><path fill="currentColor" d="M241.33,132.53v8.64h-13.1V154l-8.65-8.64v-4.18h-13.1v-8.64Zm-21.75,16.78,8.65,8.64v9.43h-8.65Z" transform="translate(-109.28 -131.52)"/><path fill="currentColor" d="M257,142.83l5,8.35-9.86,16.2H242.05Zm28.16,24.62H275L272.94,164l-14.4-23.84,5-8.28Z" transform="translate(-109.28 -131.52)"/><path fill="currentColor" d="M328.09,167.53H314.7l-.22-.22L301.09,154l-8.64-8.64V132.6h23.33a9.23,9.23,0,0,1,1.94.22,9.88,9.88,0,0,1,5.19,2.74,10.07,10.07,0,0,1,2.66,4.75,8.74,8.74,0,0,1,.29,2.37,5.6,5.6,0,0,1-.07,1.08,11.15,11.15,0,0,1-3.25,7.35,10.72,10.72,0,0,1-7.34,3.17h-.58Zm-35.5-17.86,8.64,8.64v9.58h-8.64Zm21.6-3.53a2.06,2.06,0,0,0,.65-.07.93.93,0,0,0,.43-.15,2.77,2.77,0,0,0,1.08-.64l.22-.22a.29.29,0,0,1,.07-.22v-.21c.07-.15.14-.29.22-.43a3.49,3.49,0,0,0,.21-1.23v-.86l-.21-.43H301.74l4.1,4.1h8.28Z" transform="translate(-109.28 -131.52)"/><path fill="currentColor" d="M370.86,167.53h-13.4l-.21-.22L343.86,154l-8.65-8.64V132.6h23.33a9.25,9.25,0,0,1,1.95.22,9.85,9.85,0,0,1,5.18,2.74,10,10,0,0,1,2.67,4.75,9.16,9.16,0,0,1,.29,2.37,4.91,4.91,0,0,1-.08,1.08,11.09,11.09,0,0,1-3.24,7.35,10.72,10.72,0,0,1-7.34,3.17h-.58Zm-35.5-17.86,8.64,8.64v9.58h-8.64Zm21.6-3.53a2.06,2.06,0,0,0,.65-.07.93.93,0,0,0,.43-.15,2.77,2.77,0,0,0,1.08-.64l.22-.22a.29.29,0,0,1,.07-.22v-.21l.21-.43a3.28,3.28,0,0,0,.22-1.23v-.86c-.07-.15-.14-.29-.22-.43H344.5l4.11,4.1h8.28Z" transform="translate(-109.28 -131.52)"/><path fill="currentColor" d="M418.45,132.46l-19.23,19.23v8.56L398,159.1l-7.42-7.41-19.22-19.23H383.6l.22.22L395,143.84l11.37-11.38Zm-27.79,23.19,8.64,8.64v3.09h-8.64Z" transform="translate(-109.28 -131.52)"/></svg>